<svg xmlns="http://www.w3.org/2000/svg" width="43.01587205475005" height="41" fill="none"><rect id="backgroundrect" width="100%" height="100%" x="0" y="0" fill="none" stroke="none" class="selected" style=""/>           <g class="currentLayer" style=""><title>Layer 1</title><path d="M274.08232900390624,68.61419247436524 H286.03432900390624 V65.01419247436523 H278.33032900390623 V51.454192474365236 H274.08232900390624 V68.61419247436524 z" class="cneutral" fill="#0369a1" id="svg_1"/><path d="M155.81383903808592,185.2618037109375 C154.10983903808594,185.2618037109375 153.22183903808593,183.7738037109375 153.22183903808593,181.5418037109375 C153.22183903808593,179.3098037109375 154.10983903808594,177.7978037109375 155.81383903808592,177.7978037109375 C157.51783903808592,177.7978037109375 158.42983903808596,179.3098037109375 158.42983903808596,181.5418037109375 C158.42983903808596,183.7738037109375 157.51783903808592,185.2618037109375 155.81383903808592,185.2618037109375 zM155.83783903808592,188.0458037109375 C159.79783903808595,188.0458037109375 162.38983903808594,185.2378037109375 162.38983903808594,181.5418037109375 C162.38983903808594,177.8458037109375 159.79783903808595,175.0378037109375 155.83783903808592,175.0378037109375 C151.90183903808594,175.0378037109375 149.26183903808595,177.8458037109375 149.26183903808595,181.5418037109375 C149.26183903808595,185.2378037109375 151.90183903808594,188.0458037109375 155.83783903808592,188.0458037109375 z" class="cneutral" fill="#0369a1" id="svg_2"/><path d="M224.7998962890625,106.19552453613281 C226.6238962890625,106.19552453613281 228.2318962890625,105.78752453613282 229.3118962890625,104.82752453613281 C230.2958962890625,103.93952453613281 230.94389628906248,102.59552453613281 230.94389628906248,100.74752453613281 V89.6595245361328 H227.1998962890625 V90.97952453613281 H227.1518962890625 C226.43189628906248,89.94752453613282 225.3278962890625,89.29952453613281 223.6958962890625,89.29952453613281 C220.6478962890625,89.29952453613281 218.53589628906252,91.8435245361328 218.53589628906252,95.44352453613281 C218.53589628906252,99.21152453613281 221.1038962890625,101.27552453613282 223.8638962890625,101.27552453613282 C225.3518962890625,101.27552453613282 226.2878962890625,100.67552453613281 227.0078962890625,99.85952453613281 H227.1038962890625 V101.08352453613281 C227.1038962890625,102.57152453613281 226.4078962890625,103.43552453613282 224.7518962890625,103.43552453613282 C223.45589628906248,103.43552453613282 222.8078962890625,102.88352453613281 222.5918962890625,102.23552453613281 H218.7998962890625 C219.1838962890625,104.80352453613281 221.41589628906252,106.19552453613281 224.7998962890625,106.19552453613281 zM224.7758962890625,98.37152453613281 C223.3118962890625,98.37152453613281 222.3518962890625,97.17152453613281 222.3518962890625,95.32352453613281 C222.3518962890625,93.45152453613281 223.3118962890625,92.25152453613282 224.7758962890625,92.25152453613282 C226.4078962890625,92.25152453613282 227.2718962890625,93.64352453613282 227.2718962890625,95.29952453613281 C227.2718962890625,97.02752453613282 226.47989628906248,98.37152453613281 224.7758962890625,98.37152453613281 z" class="cneutral" fill="#0369a1" id="svg_3"/><path d="M223.5628276977539,80.49990567016602 C221.8588276977539,80.49990567016602 220.97082769775392,79.01190567016602 220.97082769775392,76.77990567016602 C220.97082769775392,74.54790567016602 221.8588276977539,73.03590567016602 223.5628276977539,73.03590567016602 C225.2668276977539,73.03590567016602 226.1788276977539,74.54790567016602 226.1788276977539,76.77990567016602 C226.1788276977539,79.01190567016602 225.2668276977539,80.49990567016602 223.5628276977539,80.49990567016602 zM223.5868276977539,83.283905670166 C227.5468276977539,83.283905670166 230.13882769775392,80.47590567016601 230.13882769775392,76.77990567016602 C230.13882769775392,73.08390567016602 227.5468276977539,70.27590567016601 223.5868276977539,70.27590567016601 C219.65082769775393,70.27590567016601 217.0108276977539,73.08390567016602 217.0108276977539,76.77990567016602 C217.0108276977539,80.47590567016601 219.65082769775393,83.283905670166 223.5868276977539,83.283905670166 z" class="cneutral" fill="#0369a1" id="svg_4"/><path d="M136.04272955322267,143.2173685913086 H139.95472955322265 V130.9293685913086 H136.04272955322267 V143.2173685913086 zM136.04272955322267,129.2253685913086 H139.95472955322265 V126.05736859130859 H136.04272955322267 V129.2253685913086 z" class="cneutral" fill="#0369a1" id="svg_5"/><path d="M263.8749509277344,80.60670065307617 H267.7869509277344 V75.27870065307617 H267.8349509277344 C268.60295092773435,76.31070065307617 269.7309509277344,76.93470065307616 271.31495092773434,76.93470065307616 C274.53095092773435,76.93470065307616 276.6669509277344,74.39070065307618 276.6669509277344,70.40670065307617 C276.6669509277344,66.71070065307617 274.67495092773436,63.902700653076174 271.41095092773435,63.902700653076174 C269.7309509277344,63.902700653076174 268.53095092773435,64.64670065307618 267.6909509277344,65.75070065307617 H267.6189509277344 V64.26270065307617 H263.8749509277344 V80.60670065307617 zM270.30695092773436,73.91070065307618 C268.62695092773436,73.91070065307618 267.6669509277344,72.54270065307617 267.6669509277344,70.55070065307618 C267.6669509277344,68.55870065307617 268.53095092773435,67.04670065307617 270.23495092773436,67.04670065307617 C271.91495092773437,67.04670065307617 272.7069509277344,68.43870065307617 272.7069509277344,70.55070065307618 C272.7069509277344,72.63870065307617 271.79495092773436,73.91070065307618 270.30695092773436,73.91070065307618 z" class="cneutral" fill="#0369a1" id="svg_6"/><path d="M165.57563522338867,157.88708178710937 C168.79163522338868,157.88708178710937 171.1676352233887,156.49508178710937 171.1676352233887,153.80708178710938 C171.1676352233887,150.66308178710938 168.62363522338867,150.11108178710938 166.46363522338868,149.75108178710937 C164.90363522338868,149.4630817871094 163.51163522338868,149.34308178710938 163.51163522338868,148.47908178710938 C163.51163522338868,147.71108178710938 164.25563522338868,147.35108178710936 165.21563522338866,147.35108178710936 C166.29563522338867,147.35108178710936 167.03963522338867,147.68708178710938 167.18363522338868,148.79108178710936 H170.78363522338867 C170.59163522338866,146.36708178710938 168.71963522338868,144.85508178710938 165.23963522338866,144.85508178710938 C162.3356352233887,144.85508178710938 159.93563522338866,146.19908178710938 159.93563522338866,148.79108178710936 C159.93563522338866,151.6710817871094 162.2156352233887,152.24708178710938 164.35163522338868,152.60708178710937 C165.98363522338866,152.89508178710938 167.47163522338866,153.01508178710938 167.47163522338866,154.11908178710937 C167.47163522338866,154.91108178710937 166.72763522338866,155.34308178710938 165.55163522338867,155.34308178710938 C164.25563522338868,155.34308178710938 163.43963522338868,154.74308178710936 163.29563522338867,153.51908178710937 H159.59963522338867 C159.71963522338868,156.23108178710936 161.97563522338868,157.88708178710937 165.57563522338867,157.88708178710937 z" class="cneutral" fill="#0369a1" id="svg_7"/><path d="M218.545130859375,45.95831761169434 C220.249130859375,45.95831761169434 221.329130859375,45.28631761169434 222.217130859375,44.08631761169434 H222.289130859375 V45.59831761169434 H226.033130859375 V33.31031761169434 H222.121130859375 V40.174317611694335 C222.121130859375,41.63831761169433 221.305130859375,42.646317611694336 219.961130859375,42.646317611694336 C218.713130859375,42.646317611694336 218.113130859375,41.902317611694336 218.113130859375,40.558317611694335 V33.31031761169434 H214.225130859375 V41.37431761169434 C214.225130859375,44.110317611694335 215.713130859375,45.95831761169434 218.545130859375,45.95831761169434 z" class="cneutral" fill="#0369a1" id="svg_8"/><path d="M219.00396728515625,174.96339367675782 H222.91596728515626 V168.0753936767578 C222.91596728515626,166.6113936767578 223.63596728515626,165.5793936767578 224.85996728515624,165.5793936767578 C226.03596728515626,165.5793936767578 226.58796728515625,166.3473936767578 226.58796728515625,167.6673936767578 V174.96339367675782 H230.49996728515626 V168.0753936767578 C230.49996728515626,166.6113936767578 231.19596728515626,165.5793936767578 232.44396728515625,165.5793936767578 C233.61996728515626,165.5793936767578 234.17196728515626,166.3473936767578 234.17196728515626,167.6673936767578 V174.96339367675782 H238.08396728515626 V166.97139367675783 C238.08396728515626,164.2113936767578 236.69196728515624,162.31539367675782 233.90796728515625,162.31539367675782 C232.32396728515624,162.31539367675782 231.00396728515625,162.98739367675782 230.04396728515624,164.47539367675782 H229.99596728515624 C229.37196728515624,163.1553936767578 228.14796728515626,162.31539367675782 226.53996728515625,162.31539367675782 C224.76396728515624,162.31539367675782 223.58796728515625,163.1553936767578 222.81996728515625,164.42739367675782 H222.74796728515625 V162.6753936767578 H219.00396728515625 V174.96339367675782 z" class="cneutral" fill="#0369a1" id="svg_9"/><path fill-rule="evenodd" clip-rule="evenodd" d="M20.6841 40.138C31.7298 40.138 40.6841 31.1837 40.6841 20.138C40.6841 9.09234 31.7298 0.138031 20.6841 0.138031C9.63837 0.138031 0.684082 9.09234 0.684082 20.138C0.684082 31.1837 9.63837 40.138 20.6841 40.138ZM26.9234 9.45487C27.2271 8.37608 26.1802 7.73816 25.2241 8.41933L11.8772 17.9276C10.8403 18.6663 11.0034 20.138 12.1222 20.138L15.6368 20.138V20.1108H22.4866L16.9053 22.0801L14.4448 30.8212C14.1411 31.9 15.1879 32.5379 16.1441 31.8567L29.491 22.3485C30.5279 21.6098 30.3647 20.138 29.246 20.138L23.9162 20.138L26.9234 9.45487Z" class="ccustom" fill="#2880b0" id="svg_10"/></g></svg>